#tb 0: 1/25
#media_type 0: video
#codec_id 0: rawvideo
#dimensions 0: 1920x1080
#sar 0: 0/1
0,          0,          0,        1,  3110400, 0xa5d2b8b0
0,          1,          1,        1,  3110400, 0x13035cfa
0,          2,          2,        1,  3110400, 0x96b16f86
0,          3,          3,        1,  3110400, 0x09e96331
0,          4,          4,        1,  3110400, 0xd2662da8
0,          5,          5,        1,  3110400, 0x77d3db00
0,          6,          6,        1,  3110400, 0xaa025e5b
0,          7,          7,        1,  3110400, 0x77284bc5
0,          8,          8,        1,  3110400, 0x625b165e
0,          9,          9,        1,  3110400, 0x69c0b4c8
0,         10,         10,        1,  3110400, 0x52e627a4
0,         11,         11,        1,  3110400, 0x774eaf6a
0,         12,         12,        1,  3110400, 0xa9042cad
0,         13,         13,        1,  3110400, 0xf367e96a
0,         14,         14,        1,  3110400, 0x4687e2d9
0,         15,         15,        1,  3110400, 0xe57d46b8
0,         16,         16,        1,  3110400, 0x074da0b5
0,         17,         17,        1,  3110400, 0xbf8dd856
0,         18,         18,        1,  3110400, 0xb9cae21e
0,         19,         19,        1,  3110400, 0xa43687fc
0,         20,         20,        1,  3110400, 0x83cce559
0,         21,         21,        1,  3110400, 0xb19963d9
0,         22,         22,        1,  3110400, 0x636d69b7
0,         23,         23,        1,  3110400, 0xfcfe1a00
0,         24,         24,        1,  3110400, 0x0a804c37
0,         25,         25,        1,  3110400, 0x6af0c5ec
0,         26,         26,        1,  3110400, 0xccec0692
0,         27,         27,        1,  3110400, 0x0547e98d
0,         28,         28,        1,  3110400, 0xc4dc2caa
0,         29,         29,        1,  3110400, 0x43473ac6
0,         30,         30,        1,  3110400, 0xd5e9a795
0,         31,         31,        1,  3110400, 0x3227df7b
0,         32,         32,        1,  3110400, 0x087e57bb
0,         33,         33,        1,  3110400, 0x892f5ad0
0,         34,         34,        1,  3110400, 0xeeb23459
0,         35,         35,        1,  3110400, 0xd1efe2a6
0,         36,         36,        1,  3110400, 0x5abd5104
0,         37,         37,        1,  3110400, 0x6b018b83
0,         38,         38,        1,  3110400, 0x91617ca7
0,         39,         39,        1,  3110400, 0x601cd6ad
0,         40,         40,        1,  3110400, 0xf81cb126
0,         41,         41,        1,  3110400, 0x4bb949df
0,         42,         42,        1,  3110400, 0xed94fea0
0,         43,         43,        1,  3110400, 0x39ba8fec
0,         44,         44,        1,  3110400, 0xc65e113c
0,         45,         45,        1,  3110400, 0x627344cb
0,         46,         46,        1,  3110400, 0x5680c16a
0,         47,         47,        1,  3110400, 0x12d02cfc
0,         48,         48,        1,  3110400, 0x2e409afa
0,         49,         49,        1,  3110400, 0xfd4142f2
0,         50,         50,        1,  3110400, 0x6db3965a
0,         51,         51,        1,  3110400, 0x578962c5
0,         52,         52,        1,  3110400, 0x68d75bd1
0,         53,         53,        1,  3110400, 0x568fbb72
0,         54,         54,        1,  3110400, 0xf3c03b95
0,         55,         55,        1,  3110400, 0xeb67b532
0,         56,         56,        1,  3110400, 0x0e445b34
0,         57,         57,        1,  3110400, 0x32c04ad2
0,         58,         58,        1,  3110400, 0x239d1a14
0,         59,         59,        1,  3110400, 0xcb295635
0,         60,         60,        1,  3110400, 0x7e347c1d
0,         61,         61,        1,  3110400, 0x74e1fcf7
0,         62,         62,        1,  3110400, 0x6e399603
0,         63,         63,        1,  3110400, 0xe3bbdbcd
0,         64,         64,        1,  3110400, 0xddd336f3
0,         65,         65,        1,  3110400, 0x7834e9f7
0,         66,         66,        1,  3110400, 0xb53a7f1f
0,         67,         67,        1,  3110400, 0x1f52cbb6
0,         68,         68,        1,  3110400, 0xea26692a
0,         69,         69,        1,  3110400, 0xa4e1765f
0,         70,         70,        1,  3110400, 0x6367794d
0,         71,         71,        1,  3110400, 0x69bff6d1
0,         72,         72,        1,  3110400, 0xdf52ef08
0,         73,         73,        1,  3110400, 0x002892b7
0,         74,         74,        1,  3110400, 0x1ca49791
0,         75,         75,        1,  3110400, 0x8de95d1d
0,         76,         76,        1,  3110400, 0x9c9c38cf
0,         77,         77,        1,  3110400, 0x9f9947cd
0,         78,         78,        1,  3110400, 0xe5da908b
0,         79,         79,        1,  3110400, 0x032415ae
0,         80,         80,        1,  3110400, 0x0fef3a03
0,         81,         81,        1,  3110400, 0xd04c1b77
0,         82,         82,        1,  3110400, 0x5d46813b
0,         83,         83,        1,  3110400, 0x1dbeaa76
0,         84,         84,        1,  3110400, 0x2b2eea1a
0,         85,         85,        1,  3110400, 0x7138da47
0,         86,         86,        1,  3110400, 0xe9a43ef8
0,         87,         87,        1,  3110400, 0x02f7b1bf
0,         88,         88,        1,  3110400, 0xd1cdf8b1
0,         89,         89,        1,  3110400, 0x2e924022
0,         90,         90,        1,  3110400, 0x59d68bcf
0,         91,         91,        1,  3110400, 0x3dc70503
0,         92,         92,        1,  3110400, 0x26aeb1fa
0,         93,         93,        1,  3110400, 0x91434f9d
0,         94,         94,        1,  3110400, 0x91411f14
0,         95,         95,        1,  3110400, 0xd99a172a
0,         96,         96,        1,  3110400, 0x19678f5a
0,         97,         97,        1,  3110400, 0xc6c357ae
0,         98,         98,        1,  3110400, 0xba6cd89f
0,         99,         99,        1,  3110400, 0x657af6cf
